<!-- Created with Inkscape (http://www.inkscape.org/) -->
<svg xmlns:dc="http://purl.org/dc/elements/1.1/"
    xmlns:cc="http://creativecommons.org/ns#"
    xmlns:rdf="http://www.w3.org/1999/02/22-rdf-syntax-ns#"
    xmlns:svg="http://www.w3.org/2000/svg"
    xmlns="http://www.w3.org/2000/svg"
    xmlns:sodipodi="http://sodipodi.sourceforge.net/DTD/sodipodi-0.dtd"
    xmlns:inkscape="http://www.inkscape.org/namespaces/inkscape" width="100mm" height="100mm" viewBox="0 0 100 100" version="1.1" id="svg128" inkscape:version="0.92.5 (2060ec1f9f, 2020-04-08)" sodipodi:docname="textalk_black.svg" inkscape:export-filename="/home/rikard/Bilder/kunder/abicart/webb/quad/abi_light.png" inkscape:export-xdpi="202.70795" inkscape:export-ydpi="202.70795">
    <defs id="defs122"/>
    <metadata id="metadata125"></metadata>
    <g inkscape:label="Layer 1" inkscape:groupmode="layer" id="layer1" transform="translate(0,-197)">
        <rect style="fill:#000000;fill-opacity:1;stroke-width:0.30042276" id="rect991" width="100.22607" height="100.49335" x="-0.13363458" y="196.77393"/>
        <g id="g3808" transform="matrix(0.88519866,0,0,0.88519866,17.359838,229.01102)" style="fill:#ffffff">
            <g id="g3785" transform="translate(0,-257)" style="fill:#ffffff">
                <g transform="translate(1.3202305)" id="g4997" style="fill:#ffffff">
                    <path style="fill:#ffffff;stroke-width:1.04703212" inkscape:connector-curvature="0" class="st1" d="m 7.7310581,279.54401 v 0 c 0,-3.66462 2.6175799,-6.70101 6.2821899,-6.70101 4.18813,0 6.17749,3.3505 6.17749,6.70101 0,0.31411 0,0.62822 0,0.94233 h -8.79507 c 0.31411,1.67525 1.46585,2.72228 3.1411,2.72228 1.25644,0 2.09406,-0.41881 3.03639,-1.25644 l 2.09407,1.77996 c -1.15174,1.46584 -2.93169,2.40817 -5.23516,2.40817 -3.87402,0 -6.7010099,-2.61758 -6.7010099,-6.5963 z m 8.8997699,-1.15174 c -0.2094,-1.57055 -1.15173,-2.51288 -2.72228,-2.51288 -1.46585,0 -2.51288,0.83763 -2.72228,2.51288 z" id="path100-5"/>
                    <path style="fill:#ffffff;stroke-width:1.04703212" inkscape:connector-curvature="0" class="st1" d="m 60.187368,268.55017 h 3.55991 v 9.00448 l 4.18813,-4.39754 h 4.18813 l -4.81635,5.02576 5.02575,7.74803 h -3.97872 l -3.3505,-5.23516 -1.15174,1.25644 v 3.97872 h -3.55991 v -17.38073 z" id="path102-6"/>
                    <g id="g106" transform="matrix(1.0470322,0,0,1.0470322,-16.350682,264.67615)" style="fill:#ffffff">
                        <path style="fill:#ffffff" inkscape:connector-curvature="0" class="st1" d="m 55.8,16.8 v 0 c 0,-2.7 2,-3.9 4.9,-3.9 1.2,0 2.1,0.2 3,0.5 v -0.2 c 0,-1.4 -0.9,-2.2 -2.6,-2.2 -1.3,0 -2.2,0.2 -3.3,0.7 L 56.8,9 c 1.3,-0.6 2.6,-1 4.7,-1 1.9,0 3.2,0.5 4.1,1.4 0.9,0.9 1.3,2.2 1.3,3.9 v 7 H 63.6 V 19 c -0.8,0.9 -2,1.5 -3.7,1.5 -2.3,0 -4.1,-1.3 -4.1,-3.7 z M 63.7,16 v -0.6 c -0.6,-0.3 -1.4,-0.5 -2.2,-0.5 -1.5,0 -2.4,0.6 -2.4,1.7 v 0 c 0,0.9 0.8,1.5 1.9,1.5 1.6,0 2.7,-0.9 2.7,-2.1 z" id="path104"/>
                    </g>
                    <path style="fill:#ffffff;stroke-width:1.04703212" inkscape:connector-curvature="0" class="st1" d="m 34.535078,282.26629 v -5.96808 h -1.46584 v -3.1411 h 1.46584 v -3.2458 h 3.55991 v 3.2458 h 3.0364 v 3.03639 h -3.0364 v 5.44457 c 0,0.83763 0.31411,1.25644 1.15174,1.25644 0.62822,0 1.25643,-0.20941 1.77995,-0.41881 v 2.93169 c -0.73292,0.41881 -1.67525,0.73292 -2.82699,0.73292 -2.30347,-0.1047 -3.66461,-0.94233 -3.66461,-3.87402 z" id="path108"/>
                    <g id="g116" transform="matrix(1.0470322,0,0,1.0470322,-16.350682,264.67615)" style="fill:#ffffff">
                        <path style="fill:#ffffff" inkscape:connector-curvature="0" class="st1" d="m 72,18.4 c 0,1.1 -0.9,2 -2,2 -1.1,0 -2,-0.9 -2,-2 0,-1.1 0.9,-2 2,-2 1.1,0 2,0.9 2,2 z" id="path110"/>
                        <path style="fill:#ffffff" inkscape:connector-curvature="0" class="st1" d="m 72,12.1 c 0,1.1 -0.9,2 -2,2 -1.1,0 -2,-0.9 -2,-2 0,-1.1 0.9,-2 2,-2 1.1,0 2,0.9 2,2 z" id="path112"/>
                        <path style="fill:#ffffff" inkscape:connector-curvature="0" class="st1" d="m 72,5.7 c 0,1.1 -0.9,2 -2,2 -1.1,0 -2,-0.9 -2,-2 0,-1.1 0.9,-2 2,-2 1.1,0 2,0.9 2,2 z" id="path114"/>
                    </g>
                    <polygon style="fill:#ffffff" class="st1" points="42.9,20.2 46.6,20.2 42.3,14 46.4,8.1 42.8,8.1 40.5,11.6 38.3,8.1 34.5,8.1 38.6,14.1 34.4,20.2 38,20.2 40.4,16.5 " id="polygon118" transform="matrix(1.0470322,0,0,1.0470322,-16.350682,264.67615)"/>
                    <path style="fill:#ffffff;stroke-width:1.04703212" inkscape:connector-curvature="0" class="st1" d="m 0.1924281,282.26629 v -5.96808 h -1.46585 v -3.1411 h 1.46585 v -3.2458 h 3.55991 v 3.2458 h 2.93169 v 3.03639 h -3.0364 v 5.44457 c 0,0.83763 0.31411,1.25644 1.15174,1.25644 0.62822,0 1.25644,-0.20941 1.77995,-0.41881 v 2.93169 c -0.73292,0.41881 -1.67525,0.73292 -2.82698,0.73292 -2.09407,-0.1047 -3.55991,-0.94233 -3.55991,-3.87402 z" id="path120"/>
                </g>
            </g>
        </g>
    </g>
</svg>